<?xml version="1.0" encoding="UTF-8" standalone="no"?>
<!-- Created with Inkscape (http://www.inkscape.org/) -->

<svg
   width="1700"
   height="550"
   viewBox="0 0 449.79167 145.52083"
   version="1.1"
   id="svg1179"
   xmlns="http://www.w3.org/2000/svg"
   xmlns:svg="http://www.w3.org/2000/svg">
  <defs
     id="defs1176" />
  <g
     id="layer1"
     transform="translate(132.44242,-68.743215)">
    <path
       id="path2"
       fill-rule="evenodd"
       class="shp0"
       d="m -94.615303,73.315175 c 0.90223,1.606021 0.91546,3.518959 0.84932,5.312834 0.61118,0.05292 1.230308,0.07144 1.844141,0.08202 1.095375,-1.370542 1.17475,-3.167063 1.764771,-4.749271 0.399521,-0.902229 1.574271,-1.971146 2.542646,-1.193271 0.878417,0.748771 1.008062,2.024062 1.018646,3.119437 0.04233,-0.3175 0.08467,-0.632354 0.129646,-0.947208 0.34925,1.952625 0.918104,3.865563 1.116541,5.842 0.06085,3.423708 0.291042,7.024687 -1.169458,10.218208 -0.582083,1.404938 -2.219854,2.545292 -3.735917,1.910292 -1.055687,-0.354542 -1.434041,-1.539875 -1.685396,-2.510896 -0.359833,-1.693333 -0.693208,-3.407833 -0.62177,-5.148791 -0.48419,-0.08731 -0.97102,-0.156105 -1.45521,-0.214313 -0.0952,1.923521 -0.09,3.889375 -0.60325,5.757333 -0.39423,1.352021 -1.74889,2.407709 -3.19617,2.074334 -1.30439,-0.582084 -1.8997,-1.98173 -2.278057,-3.264959 -1.37848,-5.072062 -0.62441,-10.416645 0.645587,-15.427854 0.47625,-2.034646 3.75179,-2.751666 4.83393,-0.859896 z m 58.290356,-0.568854 c 3.804709,-0.142875 7.664979,3.458104 7.01675,7.387167 -0.108479,1.690687 -1.367896,3.029479 -2.764896,3.847042 1.227667,2.026708 2.923646,4.026958 2.939521,6.516687 -0.134937,1.883833 -2.375958,2.592917 -3.918479,1.944687 -1.997604,-0.867833 -3.384021,-2.648479 -4.722812,-4.294187 -0.05292,1.558396 0.113771,3.259667 -0.841375,4.60375 -0.785813,1.050396 -2.569104,1.201208 -3.444875,0.201083 -0.814917,-0.743479 -1.232959,-1.812396 -1.497542,-2.862791 -0.703792,-3.175 -0.473604,-6.455834 -0.298979,-9.678459 0.373062,-2.159 -0.248708,-4.683125 1.354667,-6.461125 1.711854,-1.41552 4.101041,-1.185333 6.17802,-1.203854 z m -1.9685,7.067021 c 0.447146,1.0795 2.423584,0.590021 2.219855,-0.621771 -0.211667,-1.076854 -1.479021,-1.005416 -2.312459,-0.828146 0.0291,0.47625 -0.171979,1.016 0.0926,1.449917 z m -69.222933,-7.000875 c 1.90235,0.291042 3.94758,0.820208 5.3049,2.286 0.762,0.788458 0.92604,2.018771 0.55562,3.018896 -1.18798,1.775354 -3.34962,2.492375 -5.40544,2.473854 -0.71966,3.021542 -0.36777,6.204479 -1.19327,9.204854 -0.34925,1.148292 -1.07156,2.651125 -2.50031,2.516188 -1.016,0.09789 -1.8415,-0.60325 -2.47385,-1.304396 -1.05305,-1.209146 -1.60603,-2.820459 -1.60603,-4.418542 -0.0423,-2.087562 -0.0609,-4.198937 0.36248,-6.25475 -1.76477,0.259292 -3.65918,1.023938 -5.35781,0.0979 -1.25412,-0.4445 -1.76477,-1.979083 -1.20121,-3.14325 0.92075,-2.198687 3.29142,-3.190875 5.41073,-3.876146 2.6035,-0.894291 5.40015,-0.687916 8.10419,-0.600604 z m 27.207101,0.881063 c 1.190625,-0.912813 2.775479,-0.566209 4.169833,-0.661459 2.087562,0.100542 4.360333,-0.275166 6.236229,0.867834 0.933979,0.484187 1.542521,1.571625 1.291167,2.627312 -0.343959,0.841375 -1.193271,1.344083 -2.047875,1.531938 -1.867959,0.465666 -3.802063,0.20902 -5.699125,0.14552 0.02646,0.523875 0.04498,1.055688 0.116416,1.579563 1.592792,0.378354 3.577167,0.529167 4.505854,2.092854 0.756709,1.074208 0.02381,2.648479 -1.124479,3.098271 -1.277937,0.724958 -2.786062,0.420687 -4.183062,0.505354 0.111125,0.568854 0.08467,1.293812 0.759354,1.497542 2.116667,0.179916 4.318,0.169333 6.326187,0.936625 1.709209,0.627062 2.087563,3.413125 0.452438,4.331229 -2.259542,1.378479 -5.042958,1.447271 -7.62,1.288521 -2.013479,-0.306917 -4.124854,-1.119188 -5.318125,-2.865438 -0.523875,-0.830792 -0.915458,-1.783292 -0.992187,-2.767542 -0.185209,-3.976687 -0.232834,-8.109479 1.389062,-11.832166 0.425979,-0.886354 0.891646,-1.822979 1.738313,-2.375958 z m 59.316936,2.193395 c 0.148167,3.561292 -0.01323,7.133167 -0.05556,10.697104 -0.156104,1.793875 -0.05821,3.831167 -1.280583,5.299605 -0.595313,0.767291 -1.711855,1.344083 -2.632605,0.796395 -1.57427,-0.695854 -2.214562,-2.534708 -2.182812,-4.14602 0.0053,-4.09575 -0.124354,-8.207375 0.351896,-12.284604 0.105833,-1.17475 0.772583,-2.352146 1.894416,-2.817813 1.653646,-0.796396 3.807355,0.648229 3.90525,2.455333 z M -50.533071,74.83653 c 1.807104,0.73025 3.495145,1.949979 4.40002,3.71475 1.180042,2.029354 1.140354,4.458229 0.891646,6.71777 -0.515937,2.426229 -2.039937,4.728104 -4.312708,5.823479 -1.49225,0.854605 -3.288771,0.627063 -4.926542,0.515938 -2.492375,-0.558271 -4.886854,-2.058458 -6.096,-4.362979 -1.328208,-2.913063 -1.103312,-6.437313 0.36248,-9.255125 1.100666,-2.267479 3.410479,-3.854979 5.857874,-4.28625 1.391709,-0.211667 2.58498,0.664104 3.82323,1.132417 z m -2.629959,9.73402 c 0.502709,-0.362479 1.235604,-0.563562 1.389063,-1.251479 0.164041,-1.000125 -0.576792,-2.293937 -1.709209,-2.159 -0.756708,-0.124354 -1.60602,0.354542 -1.500187,1.211792 -0.08467,1.105958 0.960437,1.762125 1.820333,2.198687 z M 2.0290531,75.56678 c 0.074083,4.437062 0.074083,8.884708 -0.082021,13.32177 -0.174625,0.968375 -0.365125,2.241021 -1.43139591,2.619375 -2.23837489,0.722313 -3.74649999,-2.029354 -3.70945799,-3.937 -0.08996,-3.537479 0.171979,-7.069666 0.394229,-10.596562 0.1693333,-1.140354 0.2275416,-2.460625 1.2250207,-3.227917 1.37054169,-0.978958 3.6486042,0.0635 3.6036252,1.820334 z m 9.8716039,1.277937 c 1.113896,0.960438 1.603375,2.407708 2.656417,3.418417 0.214312,-1.883834 -0.320146,-3.992563 0.918104,-5.622396 0.404812,-0.806979 1.389062,-0.510646 2.119312,-0.574146 1.002771,1.203854 1.410229,2.749021 1.740959,4.249208 0.605895,3.040063 0.576791,6.154209 0.534458,9.23925 -0.07144,1.349375 -0.211667,2.865438 -1.182688,3.899959 -0.5715,0.632354 -1.497541,0.52652 -2.256895,0.439208 -1.611313,-0.534458 -2.76225,-1.862667 -3.944938,-3.008313 -0.957791,-0.915458 -1.293812,-2.296583 -2.320396,-3.153833 -0.1904995,1.844146 0.169334,3.823229 -0.7408328,5.5245 -0.4788959,0.889 -1.6695209,0.899583 -2.5003125,0.584729 -1.3626041,-0.799041 -2.1193125,-2.397125 -2.0902083,-3.955521 -0.013229,-3.35227 0.00265,-6.699249 -0.00265,-10.05152 0.010583,-1.235604 0,-2.50825 0.523875,-3.659188 2.5294166,-0.637646 4.9159586,0.859896 6.5457916,2.669646 z M -7.5700298,75.283675 c 1.185333,0.859896 1.412875,2.674938 0.642937,3.876146 -1.248833,1.479021 -3.4104792,0.785813 -5.0350212,1.357313 -2.246312,0.846666 -2.227791,4.73075 0.214313,5.296958 0.174625,-0.103188 0.523875,-0.309563 0.6985,-0.41275 -0.492125,-0.465667 -1.190625,-0.904875 -0.957792,-1.688042 -0.0344,-1.444625 1.629834,-2.037291 2.8416252,-1.918229 1.624542,-0.1905 3.325813,0.711729 4.0005,2.211917 0.513292,2.629958 -0.04498,5.847291 -2.473854,7.366 -3.0453542,1.80975 -7.2866252,0.637646 -9.2868752,-2.209271 -2.415646,-3.3655 -2.439458,-8.146521 -0.468312,-11.728979 1.730375,-3.466042 6.810375,-4.487333 9.8239792,-2.151063 z M 26.487136,74.497863 c 2.225146,-0.777875 4.783667,-0.227542 6.688667,1.095375 2.640541,1.952625 3.582458,5.304896 4.056062,8.400521 0.100542,1.838854 0.15875,3.688291 0.06085,5.529791 -0.0026,1.11125 -0.724958,2.12725 -1.688042,2.63525 -0.97102,0.140229 -2.190749,0.341313 -2.886604,-0.521229 -1.54252,-1.325562 -1.611312,-3.479271 -1.910291,-5.339292 -0.751417,0.08731 -1.505479,0.182563 -2.230438,0.404813 -0.357187,1.193271 -0.629708,2.410354 -1.016,3.590396 -0.494771,1.383771 -2.386541,1.793875 -3.481916,0.881062 -1.129771,-0.870479 -1.751542,-2.264833 -2.021417,-3.638021 -0.687917,-3.503083 -0.137583,-7.201958 1.344083,-10.43252 0.619125,-1.243542 1.709209,-2.286 3.085042,-2.606146 z m 1.656292,5.921375 c -0.0079,0.637646 -0.216959,1.494896 0.508,1.838854 0.73025,0.15875 1.362604,-0.145521 1.886479,-0.640292 -0.0926,-0.563562 0.116416,-1.264708 -0.373063,-1.680104 -0.481541,-0.706437 -2.103437,-0.576791 -2.021416,0.481542 z m 15.493999,-5.580063 c 1.391709,0.449792 2.196042,1.899709 2.098146,3.320521 0.169334,1.788584 -0.584729,3.503084 -0.415396,5.289021 l 0.28575,0.124354 c 1.952625,0.772584 4.217459,0.174625 6.056313,1.36525 1.3335,0.926042 1.656291,3.156479 0.336021,4.225396 -1.494896,1.105958 -3.39725,1.36525 -5.172605,1.698625 -1.881187,0.1905 -3.881437,0.407458 -5.677958,-0.301625 -1.116541,-0.407458 -1.754187,-1.576917 -1.955271,-2.690813 -0.404812,-2.746374 -0.306916,-5.540374 -0.05821,-8.292041 0.06879,-1.362604 0.0926,-2.756958 0.537104,-4.058708 0.682625,-1.524 2.706688,-1.18798 3.966104,-0.67998 z M 206.23182,105.84834 c 0.58209,1.02129 1.04246,2.10608 1.4949,3.19087 2.921,6.23359 6.24681,12.27138 9.10696,18.53406 0.82021,1.66159 1.93939,3.16707 2.60614,4.90538 0.28311,0.71173 0.7964,1.2991 1.17475,1.95792 0.99219,1.67745 1.53988,3.57187 2.53471,5.24933 0.62706,1.08744 1.47373,2.13254 1.53723,3.44487 0.13758,-0.0132 0.40481,-0.0397 0.53711,-0.0529 2.6326,-6.38969 5.57741,-12.64709 8.29204,-19.00502 1.12183,-2.69875 2.45268,-5.29961 3.78883,-7.89517 9.3345,0.0503 18.66635,-0.0794 28.0035,0.0291 -2.93158,6.3447 -6.21242,12.51214 -9.33185,18.75895 -5.47159,10.65742 -10.98815,21.29367 -16.45709,31.94844 -0.12171,1.60867 -0.0132,3.22792 0.17463,4.826 0.0714,4.53496 0.11906,9.06727 0.14816,13.59958 0.1323,2.27013 -0.0873,4.54819 0.20373,6.81038 0.0291,4.31535 0.11907,8.63071 0.17198,12.94871 -0.10054,1.90235 0.31221,3.78618 0.16669,5.69383 -9.65465,-0.0291 -19.31458,0.0159 -28.96923,-0.0159 0.005,-3.08504 -0.0238,-6.17272 -0.15875,-9.25512 -0.50535,-2.88396 -0.0238,-5.83935 -0.50535,-8.7286 -0.17198,-5.11969 -0.51594,-10.2288 -0.79375,-15.3379 -0.54769,-3.57452 -0.19579,-7.30515 -1.26471,-10.795 -2.00025,-5.13821 -4.20688,-10.19704 -6.36588,-15.2691 -2.73314,-6.36323 -5.43718,-12.73705 -8.23383,-19.07646 0.64029,0.0661 1.28852,0.12171 1.94204,0.15081 -0.35983,-0.3175 -0.71702,-0.62442 -1.06362,-0.94192 -0.34396,0.14552 -0.67998,0.29369 -1.01071,0.43921 -2.77283,-6.27856 -5.57742,-12.53596 -8.40846,-18.78541 -1.32027,-2.09815 -0.635,-4.65932 -0.3466,-6.95325 1.86266,-0.0159 3.72798,-0.045 5.59329,-0.0767 2.78077,-0.41011 5.60123,-0.25929 8.40846,-0.35719 2.33627,0.0318 4.68577,-0.14288 7.02468,0.0582 z m 3.76767,10.19439 c -0.16404,0.54769 0.008,0.73025 0.52123,0.55298 0.1561,-0.54768 -0.0159,-0.73289 -0.52123,-0.55298 z m 47.11965,1.16946 c -0.4154,0.28046 0.003,1.10596 0.45508,0.72761 0.36777,-0.29105 -0.0132,-1.08215 -0.45508,-0.72761 z m -125.36223,-8.72331 c 4.39737,0.11377 8.81327,-0.14023 13.19741,0.12435 2.30453,0.50271 4.67255,0.32809 7.01146,0.3519 2.16959,0.008 4.33917,-0.0212 6.5114,0.003 0.53975,-0.0238 1.06627,0.11641 1.56633,0.33866 0.42334,-0.28046 0.90488,-0.43391 1.42875,-0.30956 0.53446,1.50283 0.58209,3.11415 0.82815,4.67783 1.22766,8.31586 0.86519,16.75606 0.24871,25.10631 -0.008,0.60325 -0.003,1.2065 -0.0344,1.8124 -0.0688,1.31763 -0.33867,2.61938 -0.34925,3.93965 -0.0847,5.73352 -0.62177,11.45116 -0.56621,17.18998 -0.0291,1.51077 -0.0714,3.02418 -0.11377,4.53495 -0.46302,3.32582 -0.15875,6.69396 -0.22225,10.04094 0.39158,3.048 0.1614,6.16215 0.89958,9.16781 3.02684,0.68263 6.14363,0.36777 9.21809,0.43921 8.79739,-0.0503 17.59479,0.127 26.38689,-0.16669 0.4498,3.20146 0.55034,6.43996 0.69057,9.66523 0.45773,3.91054 0.23018,7.85813 0.26458,11.78719 -22.75417,0.17463 -45.51627,0.10848 -68.27308,0.0953 -0.0132,-2.78077 0.0423,-5.56419 0.008,-8.34496 -0.0503,-2.05581 0.33338,-4.0931 0.24078,-6.14891 0.0397,-5.61182 0.15081,-11.21834 0.17991,-16.83015 0.0503,-1.21973 0,-2.4421 -0.16404,-3.6486 -0.381,1.73566 -0.67733,3.4925 -1.07421,5.22816 -0.38629,1.81504 -1.06362,3.55336 -1.78594,5.25463 -0.037,-2.14577 -0.0582,-4.30742 0.26988,-6.43467 0.14287,-1.96585 -0.0661,-3.96081 0.3175,-5.90814 0.11377,-2.27278 0.10054,-4.55084 0.32015,-6.81832 -0.0953,-1.53193 0.62441,-2.97921 0.46037,-4.51114 -0.17198,-1.94204 -0.0953,-3.89996 0.045,-5.84465 0.381,-1.70127 0.13229,-3.46075 0.37835,-5.17525 0.74613,-8.71802 0.55827,-17.48102 0.57944,-26.2255 0.27781,-2.04523 0.17992,-4.11427 0.29633,-6.17008 0.45773,-2.39713 0.22225,-4.94506 1.23561,-7.22048 z m 105.39412,12.62062 c 0.0503,0.37571 0.10848,0.75407 0.17198,1.13242 0.19315,0.0397 0.5715,0.11642 0.75936,0.15346 -0.0952,-0.58208 -0.33603,-1.09802 -0.93134,-1.28588 z m -25.65135,4.79955 c 0.008,0.93927 -0.67998,1.52664 -1.35202,2.05581 -0.0503,0.30427 -0.0952,0.61383 -0.14023,0.92339 0.82814,-0.7911 1.97114,-1.09537 3.09033,-0.889 -0.3466,-0.6641 -0.7276,-1.31498 -0.97896,-2.02406 -0.21166,-0.0212 -0.41539,-0.045 -0.61912,-0.0661 z m -15.99142,0.61912 c -0.43127,0.29898 0.0661,1.01335 0.49742,0.6985 0.43127,-0.30427 -0.0741,-1.03452 -0.49742,-0.6985 z m 39.06308,1.93146 c 0.0159,0.1905 0.0503,0.57414 0.0661,0.76464 0.31221,0.003 0.62442,0.005 0.94456,0.0132 0.0106,-0.18256 0.0238,-0.54768 0.0317,-0.73025 -0.35718,-0.0159 -0.6985,-0.0318 -1.04246,-0.0476 z m 3.3364,0.73289 c 0.52652,0.16669 1.0504,0.33867 1.59808,0.47625 -0.0344,-0.3757 -0.0635,-0.75141 -0.0873,-1.12712 -0.37306,0.005 -0.73289,0.0132 -1.08744,0.0212 -0.14287,0.21166 -0.28839,0.41804 -0.42333,0.6297 z m 11.9089,6.31296 c -0.35455,0.44715 0.381,1.07686 0.72495,0.57415 0.33338,-0.44979 -0.40216,-1.10331 -0.72495,-0.57415 z m -15.6845,2.21457 c -0.0847,-0.76465 -0.72761,-1.19063 -1.25148,-1.65365 -0.19315,0.26458 -0.41275,0.49742 -0.66411,0.70115 0.64294,0.29897 1.26207,0.65352 1.91559,0.9525 z m -16.09196,0.1905 c 0.35189,0.008 0.71173,0.0159 1.07685,0.0265 0.008,-0.35718 0.0185,-0.70908 0.0397,-1.06098 -0.19315,0.0132 -0.5715,0.0423 -0.75935,0.0529 -0.12965,0.32544 -0.24871,0.65088 -0.35719,0.98161 z m 10.45633,-0.62707 c 0.25136,0.38894 0.52388,0.76465 0.80963,1.14036 0.0582,-0.27517 0.1217,-0.55563 0.19314,-0.8255 -0.33866,-0.10848 -0.67469,-0.21167 -1.00277,-0.31486 z m -21.54502,5.46894 c 0.36248,-0.0212 0.7276,-0.0397 1.09802,-0.0582 0.0529,-0.37835 0.0953,-0.75406 0.14552,-1.13506 -0.50535,0.30162 -0.92869,0.70379 -1.24354,1.19327 z m 9.40594,0.10848 c 0.0265,0.23283 0.0688,0.70379 0.0926,0.93662 0.23284,0.0132 0.70379,0.0423 0.93927,0.0556 0,-0.24871 0.005,-0.75142 0.008,-1.00013 -0.254,0.003 -0.77787,0.005 -1.03981,0.008 z m 0.71966,1.52665 c 0.008,0.1561 0.0159,0.46831 0.0238,0.62441 0.73289,0.12965 1.45256,0.34925 2.09814,0.7329 -0.0635,-0.46302 -0.12171,-0.9234 -0.17198,-1.38642 -0.65352,0.008 -1.30175,0.0344 -1.94998,0.0291 z m -9.02758,1.69862 c 0.36513,0.008 0.7329,0.0132 1.10331,0.0238 -0.0159,-0.20108 -0.0556,-0.60325 -0.0767,-0.80433 -0.35189,-0.0635 -0.70114,-0.12965 -1.04245,-0.1905 0,0.24342 0.0159,0.73025 0.0159,0.97102 z m 5.02444,2.54529 c 0.29898,0.57679 0.75935,1.04246 1.31762,1.37848 0.20109,-0.52387 0.40482,-1.0451 0.60855,-1.56898 0.0688,-0.0688 0.19579,-0.20373 0.26458,-0.27252 -0.33338,-0.52123 -0.64029,-1.05569 -0.86519,-1.62454 -0.27781,0.81227 -0.97367,1.3335 -1.60867,1.85473 z m 12.23169,1.25413 c -0.11377,0.55827 -0.11113,1.15887 0.20108,1.66423 1.31498,0.0714 0.81227,-2.65907 -0.20108,-1.66423 z m -1.79388,0.3175 c -0.53181,0.32279 0.0609,1.10331 0.52917,0.71437 0.49741,-0.32544 -0.0688,-1.11919 -0.52917,-0.71437 z m -11.27389,2.33098 c 0.59266,0.008 1.16681,-0.1614 1.74625,-0.28575 0.005,-0.1958 0.0132,-0.59267 0.0132,-0.79111 -0.30427,-0.1905 -0.6006,-0.37835 -0.89693,-0.56621 -0.62177,0.17463 -1.26207,0.28046 -1.90236,0.34661 0.34396,0.43127 0.67204,0.87841 1.03982,1.29646 z m 9.21279,-0.008 c -0.14817,0.55033 -0.33338,1.09273 -0.49477,1.63512 0.56885,-0.19314 1.15093,-0.39158 1.74889,-0.51329 0,-0.37306 0.005,-0.74083 0.0132,-1.1086 -0.42862,0 -0.84931,0 -1.26735,-0.0132 z m -6.52992,7.59089 c -0.31221,0.38894 0.35454,0.78846 0.62706,0.42334 0.30427,-0.38894 -0.37571,-0.81756 -0.62706,-0.42334 z m 8.27881,4.0349 c -0.36777,0.44979 0.46567,0.84402 0.75671,0.45244 0.33602,-0.45509 -0.47625,-0.8255 -0.75671,-0.45244 z m 1.62454,1.02923 c 0.19844,0.23812 0.6059,0.71173 0.80963,0.9525 0.45244,-0.6059 0.81492,-1.27265 1.22767,-1.90765 -0.10055,-0.0106 -0.29898,-0.0291 -0.39688,-0.0397 -0.54239,0.34131 -1.10067,0.65881 -1.64042,0.99483 z m -10.64683,0.33337 c 0.19844,0 0.6059,0 0.80963,0 -0.008,-0.21695 -0.0238,-0.65087 -0.0344,-0.87047 -0.2196,-0.0397 -0.65617,-0.12436 -0.87577,-0.16669 0.0212,0.25929 0.0714,0.77787 0.10054,1.03716 z m 24.53481,1.05834 c 0.21961,-0.27781 0.44186,-0.55034 0.67469,-0.82021 -0.12171,-0.24871 -0.23283,-0.49742 -0.33602,-0.74348 -0.60325,0.25135 -1.19592,0.52917 -1.77535,0.82021 0.46831,0.24871 0.9472,0.50271 1.43668,0.74348 z m -27.74156,3.95023 c -0.0185,0.254 -0.0503,0.75406 -0.0661,1.00806 0.18785,-0.0582 0.56356,-0.17198 0.75406,-0.23019 -0.008,-0.17198 -0.0159,-0.52123 -0.0185,-0.69585 -0.16934,-0.0212 -0.50536,-0.0635 -0.6694,-0.082 z m 19.00502,7.6491 c 0.0265,0.21961 0.082,0.66146 0.11377,0.88636 0.15611,-0.0132 0.47361,-0.0397 0.62971,-0.0529 0.0318,-0.17992 0.0873,-0.53975 0.11906,-0.71967 -0.21695,-0.0318 -0.64823,-0.0847 -0.86254,-0.11377 z m -7.67027,3.63273 c -0.37835,0.45244 0.39158,1.0504 0.72231,0.53975 0.38365,-0.46831 -0.39952,-1.0451 -0.72231,-0.53975 z m 2.34686,17.15029 c -0.0635,-0.55298 -0.14023,-1.10331 -0.24078,-1.64835 -0.29104,0.37571 -0.85989,0.65087 -0.80697,1.19591 0.17991,0.36777 0.70643,0.2884 1.04775,0.45244 z m 2.16164,1.09008 c 0.0265,0.12965 0.0847,0.38894 0.11642,0.51859 0.61119,0.28839 1.12977,0.72231 1.57427,1.23825 0.13494,-0.55563 0.27517,-1.10861 0.43921,-1.65629 -0.68263,0.44979 -1.44727,0.16668 -2.1299,-0.10055 z m -34.60485,-79.76129 c 0.635,-0.43127 1.27,-0.86254 1.89441,-1.30439 -0.29897,-0.2249 -0.52652,-0.61119 -0.94191,-0.53711 -0.37571,0.58209 -0.64029,1.22503 -0.9525,1.8415 z M 141.3507,110.17422 c 0.20637,-0.003 0.62706,-0.0132 0.83608,-0.0159 0,-0.20637 -0.008,-0.62442 -0.0106,-0.83079 -0.18521,0.0185 -0.55563,0.0556 -0.74083,0.0741 -0.0238,0.19315 -0.0661,0.57944 -0.0847,0.77259 z m 1.76477,5.96106 c 0.76994,-0.42069 1.64571,-0.42334 2.40506,0.0344 -0.43127,-0.36248 -0.84666,-0.75141 -1.22502,-1.16945 -0.40481,-0.0238 -0.80698,-0.0423 -1.20385,-0.0609 0.005,0.39688 0.0132,0.7964 0.0238,1.19592 z m -6.00604,14.29279 c 0.35454,0.44185 0.70379,0.88635 1.08744,1.31762 -0.10848,-0.57679 -0.21961,-1.14564 -0.30692,-1.71979 -0.26723,0.13494 -0.52387,0.26723 -0.78052,0.40217 z m 7.23371,3.02419 c 0.61912,0.6006 1.28852,1.15358 1.89441,1.77535 -0.16668,-0.53446 -0.46566,-1.13771 -0.0741,-1.64835 0.39423,-0.22755 0.82021,-0.40482 1.2356,-0.60855 -0.67468,0.13494 -1.41287,0.23284 -1.89706,0.77259 -0.26723,-0.43656 -0.87048,-1.04511 -1.15887,-0.29104 z m 4.77573,1.2991 c -0.36513,0.17198 -0.26723,0.96044 0.20108,0.84402 0.3466,-0.17727 0.25929,-0.96044 -0.20108,-0.84402 z m 9.3292,1.9976 c 0.94457,-0.15875 1.96586,-0.3122 2.88661,0.0609 -0.35719,-0.37306 -0.67204,-0.77258 -1.01071,-1.14829 -0.55827,0.24871 -1.06362,0.59531 -1.58221,0.90223 -0.0741,0.045 -0.2196,0.14023 -0.29369,0.1852 z m -11.66547,2.70934 c -0.49478,0.34396 0.11906,1.09537 0.57679,0.73025 0.51858,-0.33867 -0.13494,-1.07421 -0.57679,-0.73025 z m -1.62719,1.57162 c 0.72231,0.72232 1.49754,1.75419 2.66435,1.30969 -0.8255,-0.55562 -1.73566,-0.97102 -2.66435,-1.30969 z m 8.95614,2.24632 c 0.63765,0.6985 1.39436,1.27529 2.11402,1.89441 -0.46831,-0.87048 -0.86518,-2.1246 -2.11402,-1.89441 z m 3.83117,2.73314 c -0.16404,0.52388 0.0159,0.6985 0.5424,0.52388 0.15875,-0.52652 -0.0212,-0.70115 -0.5424,-0.52388 z m -2.52412,3.63008 c -0.17992,0.67998 0.27252,2.0029 1.19856,1.50548 0.31221,-0.73554 -0.31486,-1.97643 -1.19856,-1.50548 z m -7.43744,1.41553 c 0.0556,0.46831 0.12964,0.93662 0.21166,1.40493 0.17198,-0.008 0.51859,-0.0238 0.69321,-0.0291 -0.0132,-0.29633 -0.0212,-0.58738 -0.0212,-0.87842 -0.29898,-0.16933 -0.59267,-0.33337 -0.88371,-0.49741 z m -15.88029,7.55914 c 0.15875,0.0132 0.46831,0.0344 0.62441,0.045 0.0265,-0.2196 0.0714,-0.66675 0.0979,-0.889 -0.19315,0.0344 -0.5715,0.10848 -0.762,0.14552 0.0106,0.17463 0.0291,0.52388 0.0397,0.6985 z m 13.54137,2.18811 c -0.23812,-0.76994 -0.34925,-1.56898 -0.38894,-2.36803 -0.41539,-0.0317 -0.8255,-0.0661 -1.23031,-0.10847 0.43656,0.89164 0.81492,1.8362 1.61925,2.4765 z m -13.38262,3.4237 c 0.41539,-0.0582 0.84137,-0.11641 1.26735,-0.17198 -0.42862,-0.27252 -0.8546,-0.55827 -1.27529,-0.83343 0.005,0.25135 0.008,0.75671 0.008,1.00541 z m 8.7577,2.39977 c -0.4101,0.23813 -0.41275,0.47625 -0.003,0.7038 0.40481,-0.24871 0.40746,-0.48419 0.003,-0.7038 z m -6.33677,2.93159 c -0.008,0.20108 -0.0238,0.60589 -0.0344,0.80698 0.635,-0.16404 1.27794,-0.3175 1.89971,-0.53711 -0.58473,-0.28046 -1.23825,-0.24871 -1.86532,-0.26987 z m 28.40038,16.63171 c -0.55563,0.0714 -1.37319,-0.0847 -1.43669,0.68527 0.59531,-0.0159 1.38906,0.1561 1.43669,-0.68527 z m 19.95752,5.1435 c 0.14817,0.38629 0.29104,0.7911 0.62177,1.0795 0.4101,-0.24607 0.5424,-0.69586 0.69056,-1.11655 -0.44185,0.003 -0.87841,0.0159 -1.31233,0.037 z m -38.53392,1.27 c 0.17198,0.34395 0.35454,0.68262 0.5424,1.02658 0.37042,-0.0397 0.74612,-0.0794 1.12712,-0.11906 -0.508,-0.39159 -1.07685,-0.68792 -1.66952,-0.90752 z m -5.96106,5.91608 c 0.0979,-0.52917 0.22225,-1.04511 0.33338,-1.57163 -0.49213,0.43127 -0.9234,0.9234 -1.20386,1.51607 0.21696,0.0132 0.65352,0.0423 0.87048,0.0556 z m 51.62815,-1.32556 c -0.15611,0.45773 -0.003,0.60854 0.45508,0.46037 0.14023,-0.46037 -0.0106,-0.61119 -0.45508,-0.46037 z m -48.99819,0.52123 c -0.33602,0.40745 0.37571,0.97631 0.68527,0.52652 0.33073,-0.41805 -0.37571,-0.94986 -0.68527,-0.52652 z m -7.93485,2.29922 c 0.25664,0.42069 0.37306,0.99484 0.81227,1.27 0.46566,0.0503 0.93662,0.0132 1.40758,0 -0.57415,-0.69056 -1.24883,-1.34408 -2.21985,-1.27 z m 41.51577,4.64609 c 0.003,0.13758 0.0132,0.40481 0.0159,0.54239 0.37042,0.12436 0.74348,0.26194 1.12448,0.39688 0.93662,-0.61913 2.01877,-1.02394 3.14325,-1.11919 -0.26458,-0.28839 -0.51065,-0.59002 -0.74348,-0.89429 -0.24606,0.33337 -0.48948,0.6641 -0.73554,0.98954 -0.55298,-0.38364 -0.97896,-0.87312 -1.15623,-1.524 -0.32808,0.74613 -0.84931,1.37054 -1.64835,1.60867 z m -38.50217,-1.63513 c 0.0212,0.24077 0.0635,0.71702 0.0873,0.95515 0.48154,-0.003 0.96573,-0.0159 1.45521,-0.045 -0.48948,-0.34925 -1.00806,-0.65088 -1.54252,-0.91017 z m 141.39068,-94.66262 c 3.18559,0.14817 6.3844,-0.0238 9.56205,0.3466 4.42648,0.0397 8.84766,0.37836 13.27414,0.43921 2.06375,0.35454 4.16454,0.20109 6.25211,0.32544 0.5715,4.85246 0.5027,9.75254 0.78316,14.62617 0.33867,1.52929 0.18786,3.10356 0.32015,4.65931 0.3175,1.78329 0.34131,3.60891 0.30692,5.41866 0.003,2.2225 1.05833,4.53232 0.26722,6.70984 0.93134,1.15623 0.49213,2.66435 0.78317,4.01373 0.27517,3.85498 1.10861,7.67556 0.7964,11.55964 -0.42334,2.8919 -0.66411,5.81025 -0.9234,8.71802 -0.34925,-0.005 -1.03981,-0.008 -1.38377,-0.0106 0.0159,-0.508 0.037,-1.016 0.0556,-1.52135 -0.47889,0.45508 -0.96308,0.90223 -1.44462,1.35202 0.84931,0.22225 1.83356,0.24077 2.53735,0.82285 0.008,2.64583 -0.49212,5.26256 -0.5371,7.91104 -0.0662,0.88636 -0.13494,1.77271 -0.17992,2.667 l -0.27781,0.008 c -4.40531,0.13758 -8.78152,-0.56356 -13.18154,-0.5371 -2.16694,0.005 -4.30477,-0.43921 -6.46642,-0.39423 -2.70404,0.0397 -5.38162,-0.381 -8.08567,-0.38629 -1.47373,-0.12965 -3.01625,0.13229 -4.43177,-0.3519 -0.0159,-3.9079 -0.0476,-7.82373 0.32015,-11.72104 0.0635,-7.04586 0.381,-14.07848 0.59267,-21.1164 0.13493,-3.86291 -0.0476,-7.74964 0.39952,-11.5861 0.0106,-2.70669 0.0635,-5.41073 0.0794,-8.11213 0.52652,-4.59052 0.14023,-9.23925 0.58208,-13.84035 z m 20.12421,9.42975 c 0.27517,0.51858 0.56621,1.02923 0.84667,1.55046 0.0344,-0.41804 0.0794,-0.83609 0.13229,-1.24884 -0.33337,-0.10054 -0.65881,-0.20108 -0.97896,-0.30162 z m -16.23483,5.6806 c 0.61912,0.62971 0.42069,1.52665 0.46831,2.32569 0.32809,-0.35719 0.67204,-0.70644 0.9869,-1.08744 -0.43656,-0.4736 -0.9869,-0.80962 -1.45521,-1.23825 z m 4.31535,8.41111 c -0.0503,0.14552 -0.15345,0.43127 -0.20373,0.57943 0.21696,0.0106 0.64559,0.0423 0.8599,0.0529 -0.0106,-0.20902 -0.0317,-0.63235 -0.0397,-0.84667 -0.15081,0.0556 -0.46302,0.1614 -0.61648,0.21432 z m -6.28914,3.91583 c 0.73025,-0.15875 1.16416,-0.70115 1.18798,-1.44727 -0.21961,0.008 -0.66146,0.0238 -0.88371,0.0291 -0.11642,0.47096 -0.2249,0.94192 -0.30427,1.41817 z m 7.62529,7.66763 c 0.52387,-0.24607 1.02394,-0.53711 1.53458,-0.82286 -0.56885,-0.16404 -1.11918,-0.36512 -1.66158,-0.57414 0.0397,0.46566 0.0741,0.93133 0.127,1.397 z m 14.11552,4.37885 c 0.0106,-0.23019 0.0291,-0.69321 0.037,-0.92604 -0.23283,0.0212 -0.70379,0.0635 -0.93927,0.0847 0.29104,0.28311 0.59002,0.56357 0.90223,0.84138 z m 7.97983,6.01927 c -0.34395,0.17992 -0.28575,0.97631 0.18786,0.87313 0.34131,-0.17992 0.26458,-0.97632 -0.18786,-0.87313 z m -6.08277,19.79613 c 0.11377,-0.93398 -0.60589,-1.44992 -1.27793,-1.91294 0.33072,0.69321 0.53181,1.53458 1.27793,1.91294 z m -8.39523,5.28372 c 1.65365,0.64559 3.53219,0.82286 4.97417,1.94734 1.89442,1.33879 2.70404,3.60362 3.81,5.54831 0.43656,0.87048 1.04246,1.74096 0.94985,2.77283 -0.0159,2.70934 0.037,5.4319 -0.12964,8.13859 -0.56356,2.159 -1.09273,4.33123 -1.63513,6.49552 -0.10054,0.7276 -0.87048,0.97896 -1.43933,1.25412 -3.1406,1.17475 -6.28121,2.41565 -9.59644,3.00831 -1.72508,0.26988 -3.39196,0.99219 -5.14614,0.97103 -2.02936,-0.62971 -3.93171,-1.67482 -5.6515,-2.91836 -2.31246,-1.88119 -4.01638,-4.37092 -5.99017,-6.58548 -0.79904,-0.76464 -0.50271,-1.92352 -0.52387,-2.89719 0.13493,-2.03993 -0.3863,-4.15131 0.32014,-6.12774 0.46302,-1.51871 0.70644,-3.09563 1.10596,-4.63021 1.72773,-1.72509 3.81265,-3.05329 5.67531,-4.63286 2.02142,-1.74625 4.67519,-2.34421 7.0829,-3.35491 2.1246,-0.78846 4.21216,0.32543 6.19389,1.0107 z m -1.77535,12.96194 c 0.635,1.24883 2.07433,0.94456 3.2385,1.07421 -1.12448,-0.25665 -2.03994,-1.11919 -3.2385,-1.07421 z m -3.10885,3.84704 c -0.16405,0.53711 0.0132,0.72232 0.53975,0.55034 0.1561,-0.53711 -0.0238,-0.71967 -0.53975,-0.55034 z m -6.94267,7.61471 c 0.16139,0.21167 0.33337,0.42863 0.508,0.64558 0.46037,-0.0185 0.92869,-0.037 1.40229,-0.0503 -0.53446,-0.44714 -1.03452,-0.9181 -1.53723,-1.3917 -0.127,0.26193 -0.25664,0.52652 -0.37306,0.79639 z m -3.39196,0.17727 c -0.37571,0.45773 0.39158,1.06363 0.72231,0.54769 0.37307,-0.46038 -0.39952,-1.05569 -0.72231,-0.54769 z"
       style="fill:#000000;stroke-width:0.264583" />
    <path
       id="path4"
       fill-rule="evenodd"
       class="shp1"
       d="m 45.605927,83.573071 c 2.076979,-0.325437 4.400021,-0.02117 6.056313,1.36525 -1.838854,-1.190625 -4.103688,-0.592666 -6.056313,-1.36525 z M 18.065449,105.65255 c 0.746125,0.21695 1.86002,0.11906 2.164291,1.02129 4.839229,13.44877 9.813396,26.85521 14.843125,40.23518 4.352396,11.60728 8.641292,23.23836 13.133916,34.79536 2.714625,7.12258 5.439834,14.24516 8.035396,21.41537 0.677334,1.92352 1.473729,3.81 1.965854,5.79438 -5.093229,0.20108 -10.189104,-0.0265 -15.284979,0.082 -6.355291,0.31485 -12.721166,0.0847 -19.079104,0.22225 -1.61925,0.11642 -3.235854,0.22754 -4.857749,0.18785 -2.44475,-0.0608 -4.894792,0.14288 -7.331604,-0.0952 0.01852,-2.91571 0.07144,-5.83141 -0.08996,-8.74712 -0.137584,-2.27013 0.142875,-4.5429 -0.05292,-6.80773 -0.03969,-0.9234 -0.656167,-1.64306 -1.145646,-2.37067 -0.9472085,-1.2991 -1.4684377,-2.84691 -2.352146,-4.18835 -0.7514167,1.19856 -0.5265208,2.63789 -0.5318125,3.97669 0.068792,2.9157 -0.1693333,5.84464 0.2328333,8.74712 0.1666875,2.59027 0.023813,5.18848 0.084667,7.78404 -0.060854,0.62442 0.1005417,1.86796 -0.8651874,1.75684 -3.6433125,0.14552 -7.31043751,-0.17463 -10.9378749,0.30956 -9.1598755,0.1561 -18.3276875,-0.0661 -27.4849165,0.23548 -4.167188,-0.12436 -8.337021,0.26458 -12.498917,-0.0291 -1.190625,-0.0847 -2.431521,0.33073 -3.577166,-0.11641 -0.582084,-1.90236 -0.240771,-4.06136 0.960437,-5.65415 2.055812,-2.77283 3.635375,-5.84994 5.471583,-8.76565 6.733646,-11.26066 13.655146,-22.40491 20.404667,-33.65764 6.402916,-10.66535 12.7291045,-21.37833 19.0314791,-32.10719 4.6090416,-7.59883 8.5619166,-15.56279 12.9301869,-23.29921 0.320146,-0.54504 0.635,-1.10066 1.087438,-1.54781 1.952625,-0.22225 3.831166,0.54504 5.744104,0.82286 z M 3.5451156,125.69209 c 0.4736041,-0.0106 0.9498541,-0.0132 1.4313958,-0.0159 0.00265,-0.20373 0.00529,-0.61383 0.010583,-0.81491 -0.4868333,-0.005 -0.9710208,-0.0106 -1.4525625,-0.0159 0.00265,0.21167 0.00794,0.635 0.010583,0.84667 z m 3.4051874,34.04129 c 0.3254375,1.69069 1.6695208,2.89454 2.8627917,4.0296 1.3626043,1.28852 2.9924373,2.27807 4.7730833,2.88132 0.04233,-1.60603 -0.240771,-3.19353 -0.333375,-4.79161 1.344083,0.36513 2.7305,0.53711 4.124854,0.42333 -1.513417,-5.02708 -6.117167,-9.10166 -11.379729,-9.70491 -0.1031875,2.38389 -0.6561666,4.80219 -0.047625,7.16227 z m -13.2265208,10.97227 c 1.571625,0.37042 3.190875,0.52917 4.8074793,0.43656 -1.158875,1.69334 -1.8732503,3.67242 -1.8150413,5.74411 3.70681209,-0.0741 7.1278745,-2.2569 9.310687,-5.16467 1.4869583,-1.88913 1.5054791,-4.42383 1.5531041,-6.71248 0.1349375,-0.86783 -0.9736666,-0.65087 -1.5187083,-0.7911 -2.8389791,-0.0212 -6.05102071,-0.14817 -8.3872915,1.74889 -1.6271873,1.27265 -3.1115003,2.82046 -3.9502293,4.73869 z m 40.5077078,-2.3839 c 0.433917,0.39159 0.867833,0.78582 1.30175,1.18798 0.436562,-0.36777 0.875771,-0.73818 1.314979,-1.10596 -0.873125,-0.0238 -1.74625,-0.0423 -2.616729,-0.082 z m -22.150916,9.69169 c 2.402416,2.14842 5.802312,2.94481 8.956145,2.89719 -0.526521,-1.93675 -1.508125,-3.73327 -3.108854,-4.98211 2.084917,-0.1852 4.339167,0.45509 6.278563,-0.56885 -1.15623,-1.24619 -2.145771,-2.66965 -3.511021,-3.69887 -3.323167,-2.30717 -7.434792,-3.48457 -11.474979,-3.25703 -0.5450417,3.42107 0.4841875,7.07761 2.860146,9.60967 z m -16.7825208,3.69888 c -1.256771,1.93939 -2.267479,4.2201 -1.923521,6.58812 2.166938,-0.32808 4.1380835,-1.31762 6.09070839,-2.25689 -0.021167,1.60072 0.1217084,3.20145 0.3095625,4.79425 1.98966671,-0.67469 3.81264581,-1.79123 5.47422911,-3.06653 2.4103541,-2.29658 2.9659791,-5.7732 3.7517916,-8.86089 0.301625,-0.83608 -0.2883958,-1.72773 -1.0583333,-2.03729 -1.5954375,-0.082 -3.1538333,0.38364 -4.7307499,0.55298 -3.02947911,0.35983 -6.1409794,1.70656 -7.9136874,4.28625 z m 14.8722288,3.95287 c 0.410104,2.42094 1.322917,4.91596 3.288771,6.5061 2.286,1.85473 5.159375,3.1115 8.120062,3.23586 -0.246062,-2.09286 -1.309687,-3.93436 -2.346854,-5.72294 2.042583,0.41804 4.135437,0.48684 6.199187,0.19579 -0.830791,-1.28852 -1.775354,-2.50295 -2.862791,-3.5851 -1.190625,-1.19063 -2.301875,-2.55323 -3.892021,-3.22527 -2.577041,-1.14036 -5.251979,-2.11138 -8.040687,-2.56646 -0.293688,1.69863 -0.7143752,3.42371 -0.465667,5.16202 z m -18.7695408,7.99835 c 0.616479,-0.25929 1.246187,-0.5027 1.878541,-0.73289 0.01323,-0.18786 0.04233,-0.56886 0.05821,-0.75671 -0.859896,0.0503 -1.690688,0.26723 -2.447396,0.66675 0.1905,0.254 0.365125,0.53181 0.510645,0.82285 z M -76.239988,105.90655 c 3.685646,0.35189 7.307792,1.17739 10.922,1.94998 1.383771,0.26722 2.659063,0.8837 3.878792,1.57427 2.905125,1.63248 6.334125,2.01083 9.188979,3.75443 2.987146,1.83621 5.908146,3.77561 8.744479,5.83407 1.431396,1.03716 2.119312,2.71462 2.852208,4.26243 1.426104,2.92365 2.664354,5.93461 4.064,8.87677 0.791104,1.651 1.267354,3.44223 1.389063,5.2705 -0.497417,-0.0688 -0.992188,-0.13758 -1.489605,-0.19843 0.134938,0.20108 0.269875,0.40481 0.407459,0.60854 0.436562,0.0159 0.886354,-0.003 1.317625,0.11641 1.574271,6.61988 2.643187,13.39321 2.651125,20.20888 0.01058,1.82562 0.492125,3.63537 0.20902,5.461 -0.378354,2.39712 0.0026,4.87098 -0.645583,7.22842 -1.486958,5.65943 -4.910666,10.4775 -7.754937,15.49929 -0.944563,1.6166 -2.659063,2.51883 -3.960813,3.80735 -5.508625,5.10911 -12.035895,8.9244 -18.631958,12.43806 -2.336271,1.13242 -4.934479,1.51077 -7.458604,1.99496 -1.230312,0.22225 -2.431521,0.762 -3.701521,0.61648 -3.884083,-0.45244 -7.8105,-0.44979 -11.683999,-1.00012 -10.075335,-2.12725 -19.187582,-7.75494 -26.326042,-15.0839 -3.32846,-3.41312 -6.17802,-7.33425 -8.04862,-11.73427 -3.03742,-7.30515 -5.01121,-15.1765 -4.82071,-23.12987 0.28575,-7.39511 1.85473,-14.71348 4.40002,-21.65086 1.07156,-3.08239 2.36273,-6.09335 4.03225,-8.90058 1.40758,-2.43417 3.07446,-4.70958 4.58258,-7.07761 0.86519,-1.39435 2.14842,-2.4712 3.59569,-3.21997 4.49263,-2.413 9.072557,-4.80484 14.057307,-6.0325 5.95842,-1.40759 12.125858,-1.82563 18.229795,-1.47373 z m 2.492375,22.02127 c 0.113771,-0.005 0.343959,-0.0212 0.455084,-0.0291 0.690562,-0.75141 0.02117,-1.69598 -0.61648,-2.19869 -0.08731,0.74348 -0.14552,1.524 0.161396,2.2278 z m 12.697354,0.10318 c 0.383646,-0.1905 0.772584,-0.381 1.156229,-0.57943 0.0979,-0.36513 0.195792,-0.73025 0.296334,-1.09538 -0.899584,0.20108 -1.740959,-0.14023 -2.50825,-0.57679 0.243416,0.7964 0.552979,1.57956 1.055687,2.2516 z m 4.151313,0.31221 c -0.150813,0.42598 -0.296334,0.85461 -0.441855,1.28588 0.767292,0.20373 1.53723,0.40216 2.315105,0.57679 -0.478896,-0.75406 -1.129771,-1.37319 -1.87325,-1.86267 z m -53.173314,9.27894 c 0.38365,0.0132 0.76994,0.0344 1.15359,0.0529 -0.15346,-0.65088 -0.31221,-1.30175 -0.47096,-1.94998 -0.57679,0.4736 -0.63765,1.20385 -0.68263,1.89706 z m 71.993126,1.00806 c 0.01058,-0.33602 0.02381,-0.67469 0.03704,-1.00806 -1.494896,-0.0212 -2.950105,-0.52652 -4.447646,-0.33867 1.291166,0.9234 2.801937,1.50548 4.410604,1.34673 z m -7.932208,7.43479 c 0.386291,0 0.783166,0.003 1.17475,0.008 0.338666,-0.54239 0.777875,-1.05569 0.923395,-1.69333 -0.211666,-0.18786 -0.425979,-0.36777 -0.645583,-0.53975 -0.484187,0.74083 -0.960437,1.48696 -1.452562,2.22514 z m 4.593166,-0.96573 c 0.1905,0 0.574146,-0.003 0.764646,-0.003 0.0026,-0.19579 0.01323,-0.58208 0.01588,-0.77523 -0.198437,0 -0.595312,0 -0.79375,0 0.0026,0.19579 0.01058,0.58473 0.01323,0.77787 z m -10.175875,2.6723 c 0.478896,-0.15082 0.978959,-0.27252 1.426105,-0.5133 0.201083,-0.48947 0.325437,-1.00541 0.468312,-1.51077 -0.968375,0.30957 -1.725083,0.98425 -1.894417,2.02407 z m -1.539875,-1.35467 c 0.0079,0.70379 0.02911,1.40229 0.07144,2.10608 0.251354,-0.18521 0.502708,-0.381 0.743479,-0.57679 -0.119062,-0.57679 -0.508,-1.04246 -0.814917,-1.52929 z m 10.408709,1.11654 c 0.0026,0.37306 0.0079,0.74613 0.01323,1.11919 0.201083,0 0.600604,-0.008 0.801687,-0.008 -0.04498,-0.3175 -0.08996,-0.63235 -0.132291,-0.94456 -0.17198,-0.0423 -0.513292,-0.12436 -0.682625,-0.16669 z m 0.59002,6.79186 c 0.611188,-0.85725 0.822855,-1.88648 0.915459,-2.91571 -0.600604,0.26193 -1.195917,0.53181 -1.793875,0.7911 0.478896,0.62177 0.762,1.34938 0.878416,2.12461 z M 112.1698,108.05761 c 3.5269,-0.0423 7.04057,-0.62706 10.57275,-0.4445 -0.0582,4.32594 -0.003,8.65187 0.005,12.97781 -0.0185,2.73579 0.48683,5.45571 0.25135,8.1915 -0.54504,-0.55033 -0.98954,-1.18269 -1.3679,-1.85473 -0.15875,-0.0291 -0.47625,-0.0847 -0.63764,-0.11377 0.55562,5.27579 0.36512,10.58863 0.33602,15.88294 -2.92894,0.32808 -5.88698,0.22225 -8.82121,0.508 -3.45546,0.34925 -6.94531,-0.0476 -10.39548,0.40481 -1.88383,0.20108 -3.778251,0.082 -5.66473,0.15346 -0.04762,2.10873 0.433917,4.19894 0.333375,6.31031 0.0053,0.92075 -0.518583,1.70921 -0.955146,2.47915 0.515938,0.56091 1.105959,1.18268 0.947209,2.02141 -0.61648,4.94771 -0.09525,9.94834 -0.407459,14.91457 -0.22225,1.83356 0.251354,3.66712 0.03969,5.50598 -0.455084,3.43164 -0.206375,6.90033 -0.288396,10.3505 0.08731,4.10104 -0.230188,8.21795 0.28575,12.29783 0.351896,4.08781 -0.365125,8.14387 -0.388938,12.22639 -9.056687,-0.005 -18.113374,-0.0767 -27.167416,-0.0132 -0.283104,-2.33097 -0.134937,-4.68312 -0.15875,-7.02468 0.0291,-3.23586 -0.07937,-6.477 0.05292,-9.70757 0.330729,-4.07987 0.07144,-8.17297 0.28575,-12.25285 0.402166,-2.921 0.161396,-5.87639 0.481541,-8.80269 0.359834,-7.5512 0.4445,-15.12093 0.1905,-22.67743 -0.134937,-2.74373 -0.394229,-5.48217 -0.420687,-8.23119 -10.411354,-0.008 -20.812125,-0.40217 -31.220833,-0.5715 -0.518583,-6.64369 -0.333375,-13.32706 -0.489479,-19.98398 -0.402167,-3.56658 -0.288396,-7.16492 -0.235479,-10.74737 2.423583,-0.1614 4.860395,0.0397 7.276041,-0.26988 2.225146,-0.29633 4.479396,-0.0503 6.715125,-0.19844 3.558646,-0.37306 7.14375,-0.33602 10.710333,-0.60589 3.241146,0.0979 6.450542,-0.45509 9.689042,-0.35454 3.127375,0.0159 6.257396,-0.0503 9.384771,-0.008 1.73302,0.0318 3.436937,-0.33073 5.167312,-0.32015 8.633354,0.0132 17.266704,0.0291 25.894764,-0.0423 z M 88.926156,109.997 c 0.0344,0.44186 0.07673,0.88107 0.121708,1.32557 0.182563,0.0238 0.545042,0.0794 0.724959,0.10583 0.119062,-0.4789 0.243416,-0.95779 0.375708,-1.43404 -0.410104,0 -0.817563,0 -1.222375,0.003 z m 1.598083,-0.0265 c 0.238125,0.36777 0.478896,0.73554 0.714375,1.1086 0.193146,0.0106 0.579438,0.0317 0.772584,0.0423 0,-0.37041 0.0079,-0.73818 0.01323,-1.10595 -0.502709,-0.0106 -1.005417,-0.0238 -1.500188,-0.045 z M 67.96851,128.51514 c -0.261937,-0.43656 -0.584729,-0.83608 -0.889,-1.23825 -0.447145,0.71702 -0.365125,1.46844 0.164042,2.11667 0.246063,-0.2884 0.515938,-0.56092 0.724958,-0.87842 z m 76.98581,-19.90191 c 0,0 0,0 0,0 0,0 0,0 0,0 z m 6.04044,-0.23548 c 3.31788,-0.0397 6.63311,0.0397 9.95098,0.0847 0.71438,-0.0582 0.9869,0.75671 1.13771,1.32027 0.47625,2.42359 0.53446,4.90273 1.00806,7.32896 0.12965,3.53748 0.63765,7.06438 0.47361,10.61244 -0.0185,2.159 -0.381,4.29948 -0.39159,6.46112 -0.045,1.53988 0.0582,3.15913 -0.62441,4.59581 0.61648,-8.35025 0.97895,-16.79045 -0.24871,-25.10631 -0.24606,-1.56368 -0.29369,-3.175 -0.82815,-4.67783 -0.52387,-0.12435 -1.00541,0.0291 -1.42875,0.30956 -0.50006,-0.22225 -1.02658,-0.36248 -1.56633,-0.33866 -2.17223,-0.0238 -4.34181,0.005 -6.5114,-0.003 -2.33891,-0.0238 -4.70693,0.15081 -7.01146,-0.3519 1.98703,-0.4392 4.02696,-0.1852 6.04044,-0.23548 z m -8.81856,0.94986 c 0.003,0.20637 0.0106,0.62442 0.0106,0.83079 -0.20902,0.003 -0.62971,0.0132 -0.83608,0.0159 0.0185,-0.19315 0.0608,-0.57944 0.0847,-0.77259 0.1852,-0.0185 0.55562,-0.0556 0.74083,-0.0741 z m 2.11931,5.67267 c 0.37836,0.41804 0.79375,0.80697 1.22502,1.16945 -0.75935,-0.45773 -1.63512,-0.45508 -2.40506,-0.0344 -0.0106,-0.39952 -0.0185,-0.79904 -0.0238,-1.19592 0.39687,0.0185 0.79904,0.037 1.20385,0.0609 z m 65.70398,1.04245 c 0.50535,-0.17991 0.67733,0.005 0.52123,0.55298 -0.51329,0.17727 -0.68527,-0.005 -0.52123,-0.55298 z m 47.11965,1.16946 c 0.44185,-0.35454 0.82285,0.43656 0.45508,0.72761 -0.45244,0.37835 -0.87048,-0.44715 -0.45508,-0.72761 z m 40.64793,0.57944 c 0.32015,0.10054 0.64559,0.20108 0.97896,0.30162 -0.0529,0.41275 -0.0979,0.8308 -0.13229,1.24884 -0.28046,-0.52123 -0.5715,-1.03188 -0.84667,-1.55046 z m -103.66375,1.18798 c -0.62441,0.44185 -1.25941,0.87312 -1.89441,1.30439 0.31221,-0.61647 0.57679,-1.25941 0.9525,-1.8415 0.41539,-0.0741 0.64294,0.31221 0.94191,0.53711 z m 43.04771,2.12989 c 0.59531,0.18786 0.83609,0.7038 0.93134,1.28588 -0.18786,-0.037 -0.56621,-0.11377 -0.75936,-0.15346 -0.0635,-0.37835 -0.12171,-0.75671 -0.17198,-1.13242 z m 44.38121,2.36273 c 0.46831,0.42863 1.01865,0.76465 1.45521,1.23825 -0.31486,0.381 -0.65881,0.73025 -0.9869,1.08744 -0.0476,-0.79904 0.15081,-1.69598 -0.46831,-2.32569 z m -70.03256,2.43682 c 0.20373,0.0212 0.40746,0.045 0.61912,0.0661 0.25136,0.70908 0.63236,1.35996 0.97896,2.02406 -1.11919,-0.20637 -2.26219,0.0979 -3.09033,0.889 0.045,-0.30956 0.09,-0.61912 0.14023,-0.92339 0.67204,-0.52917 1.35996,-1.11654 1.35202,-2.05581 z m -15.99142,0.61912 c 0.42334,-0.33602 0.92869,0.39423 0.49742,0.6985 -0.43127,0.31485 -0.92869,-0.39952 -0.49742,-0.6985 z m 39.06308,1.93146 c 0.34396,0.0159 0.68528,0.0318 1.04246,0.0476 -0.008,0.18257 -0.0212,0.54769 -0.0317,0.73025 -0.32014,-0.008 -0.63235,-0.0106 -0.94456,-0.0132 -0.0159,-0.1905 -0.0503,-0.57414 -0.0661,-0.76464 z m 4.84717,0.082 c 0.0238,0.37571 0.0529,0.75142 0.0873,1.12712 -0.54768,-0.13758 -1.07156,-0.30956 -1.59808,-0.47625 0.13494,-0.21166 0.28046,-0.41804 0.42333,-0.6297 0.35455,-0.008 0.71438,-0.0159 1.08744,-0.0212 z m -102.30908,1.88648 c 0.25665,-0.13494 0.51329,-0.26723 0.78052,-0.40217 0.0873,0.57415 0.19844,1.143 0.30692,1.71979 -0.38365,-0.43127 -0.7329,-0.87577 -1.08744,-1.31762 z m 148.73816,1.45521 c 0.15346,-0.0529 0.46567,-0.15875 0.61648,-0.21432 0.008,0.21432 0.0291,0.63765 0.0397,0.84667 -0.21431,-0.0106 -0.64294,-0.0423 -0.8599,-0.0529 0.0503,-0.14816 0.15346,-0.43391 0.20373,-0.57943 z m -141.50445,1.56898 c 0.28839,-0.75407 0.89164,-0.14552 1.15887,0.29104 0.48419,-0.53975 1.22238,-0.63765 1.89706,-0.77259 -0.41539,0.20373 -0.84137,0.381 -1.2356,0.60855 -0.39158,0.51064 -0.0926,1.11389 0.0741,1.64835 -0.60589,-0.62177 -1.27529,-1.17475 -1.89441,-1.77535 z m 136.40329,0.89958 c -0.0238,0.74612 -0.45773,1.28852 -1.18798,1.44727 0.0794,-0.47625 0.18785,-0.94721 0.30427,-1.41817 0.22225,-0.005 0.6641,-0.0212 0.88371,-0.0291 z m -131.62756,0.39952 c 0.46037,-0.11642 0.54768,0.66675 0.20108,0.84402 -0.46831,0.11642 -0.56621,-0.67204 -0.20108,-0.84402 z m 11.2051,0.91017 c 0.33867,0.37571 0.65352,0.77523 1.01071,1.14829 -0.92075,-0.37306 -1.94204,-0.21961 -2.88661,-0.0609 0.0741,-0.045 0.21961,-0.14022 0.29369,-0.1852 0.51859,-0.30692 1.02394,-0.65352 1.58221,-0.90223 z m 89.49267,-0.15611 c 0.32279,-0.52916 1.05833,0.12436 0.72495,0.57415 -0.34395,0.50271 -1.0795,-0.127 -0.72495,-0.57415 z m -16.93598,0.56092 c 0.52387,0.46302 1.16681,0.889 1.25148,1.65365 -0.65352,-0.29898 -1.27265,-0.65353 -1.91559,-0.9525 0.25136,-0.20373 0.47096,-0.43657 0.66411,-0.70115 z m -13.72394,0.80962 c -0.0212,0.3519 -0.0317,0.7038 -0.0397,1.06098 -0.36512,-0.0106 -0.72496,-0.0185 -1.07685,-0.0265 0.10848,-0.33073 0.22754,-0.65617 0.35719,-0.98161 0.18785,-0.0106 0.5662,-0.0397 0.75935,-0.0529 z m 9.33979,0.40746 c 0.32808,0.10319 0.66411,0.20638 1.00277,0.31486 -0.0714,0.26987 -0.13494,0.55033 -0.19314,0.8255 -0.28575,-0.37571 -0.55827,-0.75142 -0.80963,-1.14036 z m -81.71391,2.17488 c 0.44185,-0.34396 1.09537,0.39158 0.57679,0.73025 -0.45773,0.36512 -1.07157,-0.38629 -0.57679,-0.73025 z m 15.73212,1.13506 c 0.52123,3.15648 -0.47625,6.28385 -0.22225,9.44033 0.005,2.69611 -0.0952,5.39486 -0.16669,8.08832 -0.52652,3.75973 -0.13758,7.56443 -0.381,11.34268 0.0344,5.25992 -0.33602,10.56746 0.62971,15.77446 1.93146,0.11377 3.82852,0.58209 5.77321,0.5715 6.68867,-0.0423 13.37998,0.003 20.066,-0.0212 3.2385,-0.33073 6.49552,-0.51859 9.75254,-0.45244 0.35983,0.92339 0.53181,1.91029 0.49213,2.90512 -0.11377,2.83104 0.635,5.61711 0.42068,8.45344 -0.20637,2.3786 0.37042,4.7281 0.28311,7.10671 -0.0609,1.07156 0.14023,2.22514 -0.30163,3.23321 -0.35718,0.70908 -1.23031,0.66145 -1.89706,0.68262 -22.30173,-0.0556 -44.6061,0.045 -66.90519,-0.0529 -0.19579,-2.81252 0.47625,-5.58535 0.34925,-8.39522 -0.3466,-7.31573 0.11113,-14.63675 -0.0132,-21.94984 -0.18785,0.0556 -0.5662,0.16404 -0.75406,0.22225 0.39688,-1.73566 0.69321,-3.4925 1.07421,-5.22816 0.16404,1.2065 0.21431,2.42887 0.16404,3.6486 -0.0291,5.61181 -0.14023,11.21833 -0.17991,16.83015 0.0926,2.05581 -0.29105,4.0931 -0.24078,6.14891 0.0344,2.78077 -0.0212,5.56419 -0.008,8.34496 22.75681,0.0132 45.51891,0.0794 68.27308,-0.0953 -0.0344,-3.92906 0.19315,-7.87665 -0.26458,-11.78983 -0.14023,-3.22263 -0.24077,-6.46113 -0.69057,-9.66259 -8.7921,0.29369 -17.5895,0.11642 -26.38689,0.16669 -3.07446,-0.0714 -6.19125,0.24342 -9.21809,-0.43921 -0.73818,-3.00566 -0.508,-6.11981 -0.89958,-9.16781 0.0635,-3.34698 -0.24077,-6.71512 0.22225,-10.04094 0.0423,-1.51077 0.0847,-3.02418 0.11377,-4.53495 -0.0556,-5.73882 0.48154,-11.45646 0.56621,-17.18998 0.0106,-1.32027 0.28046,-2.62202 0.34925,-3.93965 z m -17.35931,0.43656 c 0.92869,0.33867 1.83885,0.75407 2.66435,1.30969 -1.16681,0.4445 -1.94204,-0.58737 -2.66435,-1.30969 z m 61.79608,1.72244 c 0.31485,-0.48948 0.73819,-0.89165 1.24354,-1.19327 -0.0503,0.381 -0.0926,0.75671 -0.14552,1.13506 -0.37042,0.0185 -0.73554,0.037 -1.09802,0.0582 z m 69.6304,-0.85196 c -0.21167,7.03792 -0.52917,14.07054 -0.59267,21.1164 -0.36777,3.89731 -0.33602,7.81314 -0.32015,11.72104 1.41552,0.48419 2.95804,0.22225 4.43177,0.3519 2.70405,0.005 5.38163,0.42597 8.08567,0.38629 2.16165,-0.045 4.29948,0.39952 6.46642,0.39423 4.40002,-0.0265 8.77623,0.67468 13.18154,0.5371 0.003,0.12171 0.0106,0.37042 0.0159,0.49477 -2.13783,-0.0661 -4.26243,-0.43127 -6.40027,-0.33337 -3.35491,0.11641 -6.65427,-0.73555 -10.01448,-0.57944 -2.38654,0.12435 -4.73075,-0.53181 -7.12258,-0.36248 -3.06917,0.13494 -6.11452,-0.32808 -9.16781,-0.57944 -0.0238,-1.8071 0.0265,-3.62479 0.30427,-5.41337 0.34131,-1.98173 0.0609,-3.98992 0.0979,-5.98488 -0.0609,-2.48444 0.0952,-4.96094 0.34925,-7.42685 0.20903,-1.73038 0,-3.46604 0.0238,-5.19906 0.0185,-1.94734 0.1561,-3.88673 0.30427,-5.82613 0.0767,-1.10596 -0.0714,-2.24896 0.35719,-3.29671 z m 12.13643,0.74348 c -0.51064,0.28575 -1.01071,0.57679 -1.53458,0.82286 -0.0529,-0.46567 -0.0873,-0.93134 -0.127,-1.397 0.5424,0.20902 1.09273,0.4101 1.66158,0.57414 z m -72.36089,0.21696 c 0.26194,-0.003 0.78581,-0.005 1.03981,-0.008 -0.003,0.24871 -0.008,0.75142 -0.008,1.00013 -0.23548,-0.0132 -0.70643,-0.0423 -0.93927,-0.0556 -0.0238,-0.23283 -0.0661,-0.70379 -0.0926,-0.93662 z m -62.24588,0.4154 c 1.24884,-0.23019 1.64571,1.02393 2.11402,1.89441 -0.71966,-0.61912 -1.47637,-1.19591 -2.11402,-1.89441 z m 62.96554,1.11125 c 0.64823,0.005 1.29646,-0.0212 1.94998,-0.0291 0.0503,0.46302 0.10848,0.9234 0.17198,1.38642 -0.64558,-0.38365 -1.36525,-0.60325 -2.09814,-0.7329 -0.008,-0.1561 -0.0159,-0.46831 -0.0238,-0.62441 z m -8.001,0.9181 c 0.0212,0.20108 0.0609,0.60325 0.0767,0.80433 -0.37041,-0.0106 -0.73818,-0.0159 -1.10331,-0.0238 0,-0.24077 -0.0159,-0.7276 -0.0159,-0.97102 0.34131,0.0609 0.69056,0.127 1.04245,0.1905 z m -51.13337,0.70379 c 0.52123,-0.17727 0.70115,-0.003 0.5424,0.52388 -0.52652,0.17462 -0.70644,0 -0.5424,-0.52388 z m 143.39358,0.91017 c -0.008,0.23283 -0.0265,0.69585 -0.037,0.92604 -0.31221,-0.27781 -0.61119,-0.55827 -0.90223,-0.84138 0.23548,-0.0212 0.70644,-0.0635 0.93927,-0.0847 z m -87.24635,2.48179 c 0.29898,-0.32279 0.59796,-0.64294 0.91017,-0.96044 -0.20373,0.52388 -0.40746,1.04511 -0.60855,1.56898 -0.55827,-0.33602 -1.01864,-0.80169 -1.31762,-1.37848 0.33602,0.24871 0.67998,0.50536 1.016,0.76994 z m 11.21569,0.48419 c 1.01335,-0.99484 1.51606,1.73566 0.20108,1.66423 -0.31221,-0.50536 -0.31485,-1.10596 -0.20108,-1.66423 z m -1.79388,0.3175 c 0.46038,-0.40482 1.02658,0.38893 0.52917,0.71437 -0.46831,0.38894 -1.06098,-0.39158 -0.52917,-0.71437 z m -75.5306,0.85196 c 0.29104,0.16404 0.58473,0.32808 0.88371,0.49741 0,0.29104 0.008,0.58209 0.0212,0.87842 -0.17462,0.005 -0.52123,0.0212 -0.69321,0.0291 -0.082,-0.46831 -0.1561,-0.93662 -0.21166,-1.40493 z m 73.4695,1.47108 c 0.41804,0.0132 0.83873,0.0132 1.26735,0.0132 -0.008,0.36777 -0.0132,0.73554 -0.0132,1.1086 -0.59796,0.12171 -1.18004,0.32015 -1.74889,0.51329 0.16139,-0.54239 0.3466,-1.08479 0.49477,-1.63512 z m 87.82843,1.33879 c 0.45244,-0.10319 0.52917,0.69321 0.18786,0.87313 -0.47361,0.10318 -0.53181,-0.69321 -0.18786,-0.87313 z m 0.70909,2.59556 c 0.14023,3.79148 -0.68792,7.52475 -0.87577,11.29771 -0.31486,1.98702 -0.0926,4.064 -0.82021,5.97429 0.045,-2.64848 0.54504,-5.26521 0.5371,-7.91104 -0.70379,-0.58208 -1.68804,-0.6006 -2.53735,-0.82285 0.48154,-0.44979 0.96573,-0.89694 1.44462,-1.35202 -0.0185,0.50535 -0.0397,1.01335 -0.0556,1.52135 0.34396,0.003 1.03452,0.005 1.38377,0.0106 0.25929,-2.90777 0.50006,-5.82612 0.9234,-8.71802 z m -177.165,1.30969 c -0.0265,0.22225 -0.0714,0.6694 -0.0979,0.889 -0.1561,-0.0106 -0.46566,-0.0318 -0.62441,-0.045 -0.0106,-0.17462 -0.0291,-0.52387 -0.0397,-0.6985 0.1905,-0.037 0.56885,-0.11112 0.762,-0.14552 z m 12.43012,0.6641 c 0.0397,0.79905 0.15082,1.59809 0.38894,2.36803 -0.80433,-0.6403 -1.18269,-1.58486 -1.61925,-2.4765 0.40481,0.0423 0.81492,0.0767 1.23031,0.10847 z m 69.66744,1.68275 c 0.25135,-0.39422 0.93133,0.0344 0.62706,0.42334 -0.27252,0.36512 -0.93927,-0.0344 -0.62706,-0.42334 z m -81.39377,3.937 c -0.42598,0.0556 -0.85196,0.11378 -1.26735,0.17198 0,-0.2487 -0.003,-0.75406 -0.008,-1.00541 0.42069,0.27516 0.84667,0.56091 1.27529,0.83343 z m 89.67258,0.0979 c 0.28046,-0.37306 1.09273,-0.003 0.75671,0.45244 -0.29104,0.39158 -1.12448,-0.003 -0.75671,-0.45244 z m 1.62454,1.02923 c 0.53975,-0.33602 1.09803,-0.65352 1.64042,-0.99483 0.0979,0.0106 0.29633,0.0291 0.39688,0.0397 -0.41275,0.635 -0.77523,1.30175 -1.22767,1.90765 -0.20373,-0.24077 -0.61119,-0.71438 -0.80963,-0.9525 z m -9.8716,-0.5371 c 0.0106,0.2196 0.0265,0.65352 0.0344,0.87047 -0.20373,0 -0.61119,0 -0.80963,0 -0.0291,-0.25929 -0.0794,-0.77787 -0.10054,-1.03716 0.2196,0.0423 0.65617,0.127 0.87577,0.16669 z m -73.93517,1.98172 c 0.40482,0.21961 0.40217,0.45509 -0.003,0.7038 -0.41011,-0.22755 -0.40746,-0.46567 0.003,-0.7038 z m -6.33677,2.93159 c 0.62707,0.0212 1.28059,-0.0106 1.86532,0.26987 -0.62177,0.21961 -1.26471,0.37307 -1.89971,0.53711 0.0106,-0.20109 0.0265,-0.6059 0.0344,-0.80698 z m 76.28996,0.96573 c 0.16404,0.0185 0.50006,0.0609 0.6694,0.082 0.003,0.17462 0.0106,0.52387 0.0185,0.69585 -0.1905,0.0582 -0.56621,0.17198 -0.75406,0.23019 0.0159,-0.254 0.0476,-0.75406 0.0661,-1.00806 z m 90.94788,1.22502 c 0.67204,0.46302 1.3917,0.97896 1.27793,1.91294 -0.74612,-0.37836 -0.94721,-1.21973 -1.27793,-1.91294 z m -71.94286,6.42408 c 0.21431,0.0291 0.64559,0.082 0.86254,0.11377 -0.0318,0.17992 -0.0873,0.53975 -0.11906,0.71967 -0.1561,0.0132 -0.4736,0.0397 -0.62971,0.0529 -0.0317,-0.2249 -0.0873,-0.66675 -0.11377,-0.88636 z m -7.67027,3.63273 c 0.32279,-0.50535 1.10596,0.0714 0.72231,0.53975 -0.33073,0.51065 -1.10066,-0.0873 -0.72231,-0.53975 z m -60.66102,5.06942 c 0.0635,-0.76994 0.88106,-0.61384 1.43669,-0.68527 -0.0476,0.84137 -0.84138,0.66939 -1.43669,0.68527 z m 21.39421,4.45823 c 0.43392,-0.0212 0.87048,-0.0344 1.31233,-0.037 -0.14816,0.42069 -0.28046,0.87048 -0.69056,1.11655 -0.33073,-0.2884 -0.4736,-0.69321 -0.62177,-1.0795 z m 109.98729,0.57414 c 1.19856,-0.045 2.11402,0.81756 3.2385,1.07421 -1.16417,-0.12965 -2.6035,0.17462 -3.2385,-1.07421 z m -148.52121,0.69586 c 0.59267,0.2196 1.16152,0.51593 1.66952,0.90752 -0.381,0.0397 -0.7567,0.0794 -1.12712,0.11906 -0.18786,-0.34396 -0.37042,-0.68263 -0.5424,-1.02658 z m 145.41236,3.15118 c 0.51593,-0.16933 0.69585,0.0132 0.53975,0.55034 -0.52653,0.17198 -0.7038,-0.0132 -0.53975,-0.55034 z M 138.87685,196.947 c -0.11113,0.52652 -0.23548,1.04246 -0.33338,1.57163 -0.21696,-0.0132 -0.65352,-0.0423 -0.87048,-0.0556 0.28046,-0.59267 0.71173,-1.0848 1.20386,-1.51607 z m 51.29477,0.24607 c 0.4445,-0.15082 0.59531,0 0.45508,0.46037 -0.45773,0.14817 -0.61119,-0.003 -0.45508,-0.46037 z m -48.99819,0.52123 c 0.30956,-0.42334 1.016,0.10847 0.68527,0.52652 -0.30956,0.44979 -1.02129,-0.11907 -0.68527,-0.52652 z m -7.93485,2.29922 c 0.97102,-0.0741 1.6457,0.57944 2.21985,1.27 -0.47096,0.0132 -0.94192,0.0503 -1.40758,0 -0.43921,-0.27516 -0.55563,-0.84931 -0.81227,-1.27 z m 93.57518,0.0317 c 0.68263,0.26723 1.44727,0.55034 2.1299,0.10055 -0.16404,0.54768 -0.30427,1.10066 -0.43921,1.65629 -0.4445,-0.51594 -0.96308,-0.94986 -1.57427,-1.23825 -0.0317,-0.12965 -0.09,-0.38894 -0.11642,-0.51859 z m -52.05941,4.61434 c 0.79904,-0.23813 1.32027,-0.86254 1.64835,-1.60867 0.17727,0.65088 0.60325,1.14036 1.15623,1.524 0.24606,-0.32544 0.48948,-0.65617 0.73554,-0.98954 0.23283,0.30427 0.4789,0.6059 0.74348,0.89429 -1.12448,0.0952 -2.20663,0.50006 -3.14325,1.11919 -0.381,-0.13494 -0.75406,-0.27252 -1.12448,-0.39688 -0.003,-0.13758 -0.0132,-0.40481 -0.0159,-0.54239 z m -38.50217,-1.63513 c 0.53446,0.25929 1.05304,0.56092 1.54252,0.91017 -0.48948,0.0291 -0.97367,0.0423 -1.45521,0.045 -0.0238,-0.23813 -0.0661,-0.71438 -0.0873,-0.95515 z m 143.33008,0.52123 c 0.32279,-0.508 1.09538,0.0873 0.72231,0.54769 -0.33073,0.51594 -1.09802,-0.09 -0.72231,-0.54769 z"
       style="fill:#a1c9d6;stroke-width:0.264583" />
  </g>
</svg>
